<?xml version="1.0" encoding="UTF-8"?><svg id="Layer_2" xmlns="http://www.w3.org/2000/svg" viewBox="0 0 62.1 35.99"><defs><style>.cls-1{fill:#690b10;}</style></defs><g id="Layer_1-2"><path class="cls-1" d="m29.18,0h-6.96v6.89c.55-1.76,1.56-3.31,3.02-4.64,1.08-.98,2.4-1.72,3.94-2.25Z"/><path class="cls-1" d="m41.37,0h.75s-.04.01-.06.02h-.64s-.03-.02-.05-.02Z"/><path class="cls-1" d="m22.18,25.05L7.89,0H0v35.99h7.01V10.42l14.7,25.56h8.59c-1.55-.53-2.92-1.24-4.1-2.18-2.67-2.13-4.01-5.05-4.03-8.76Z"/><path class="cls-1" d="m62.1,10.82v9.18c-.46-.67-1.02-1.26-1.68-1.78-1.28-1.01-3.14-1.84-5.58-2.47-.19-.06-.38-.1-.57-.15l-6.2-1.48c-2.39-.57-3.96-1.07-4.69-1.49-1.14-.64-1.71-1.6-1.71-2.88,0-.36.04-.7.12-1.02.22-.92.76-1.67,1.62-2.26,1.15-.78,2.7-1.17,4.63-1.17h.05c1.73,0,3.16.31,4.32.91,1.17.61,1.99,1.49,2.43,2.66.23.58.37,1.23.41,1.95h6.85Z"/><path class="cls-1" d="m62.1,7.87v.13s-.02-.09-.03-.13h.03Z"/><path class="cls-1" d="m56.39,26.13c0,1.42-.52,2.53-1.55,3.33-.44.34-.97.62-1.6.84-1.02.36-2.34.56-3.95.58-.12.01-.24.01-.37.01-2.96,0-5.05-.74-6.27-2.22t-.01-.02c-.67-.82-1.11-2.04-1.33-3.67h-6.15c0,2.26.49,4.23,1.47,5.9.64,1.11,1.5,2.08,2.56,2.93,1.15.91,2.48,1.63,3.99,2.16h-8.47v-5.13c-2.32-.18-4.01-.9-5.05-2.17-.67-.82-1.12-2.05-1.35-3.69h-6.1v-11.19c.57,1.8,1.61,3.23,3.15,4.28,1.43.99,4.02,1.91,7.76,2.76l1.59.36v-7.16c-2.18-.53-3.63-1-4.32-1.4-1.14-.64-1.71-1.6-1.71-2.88,0-1.4.58-2.49,1.73-3.28,1.09-.73,2.53-1.11,4.3-1.15V.02h6.71c.1.04.21.07.31.12-1.36.53-2.53,1.23-3.5,2.11-1.01.92-1.81,1.95-2.39,3.07-.75,1.48-1.13,3.13-1.13,4.96,0,1.46.21,2.76.63,3.9.58,1.62,1.59,2.92,3.01,3.89,1.43.99,4.02,1.91,7.77,2.76l3.8.85s.05.01.08.02c2.19.48,3.8,1.04,4.83,1.67,0,0,.01,0,.01.01,1.03.65,1.55,1.56,1.55,2.75Z"/><path class="cls-1" d="m42.06.02c-.12.04-.23.08-.33.12-.1-.05-.21-.08-.31-.12h.64Z"/></g></svg>