<svg width="1853" height="1648" viewBox="0 0 1853 1648" fill="none" xmlns="http://www.w3.org/2000/svg">
<g id="assets">
<rect width="1853" height="1648" fill="white"/>
<rect id="bkgd" width="1539" height="1347" fill="white"/>
<path id="bursty-thing" fill-rule="evenodd" clip-rule="evenodd" d="M233 252H251V303.411L276.705 258.888L292.294 267.888L266.588 312.412L311.112 286.706L320.112 302.294L275.588 328H327V346H275.588L320.112 371.706L311.112 387.294L266.588 361.588L292.294 406.112L276.706 415.112L251 370.589V422H233V371.082C232.916 371.062 232.833 371.042 232.749 371.022L207.294 415.112L191.705 406.112L216.935 362.414C216.815 362.3 216.695 362.186 216.577 362.07L172.888 387.294L163.888 371.706L207.339 346.619C207.28 346.414 207.223 346.207 207.168 346H157V328H207.168C207.223 327.793 207.28 327.586 207.338 327.381L163.888 302.294L172.888 286.706L216.577 311.93C216.695 311.814 216.815 311.7 216.935 311.586L191.706 267.888L207.294 258.888L232.75 302.978C232.833 302.958 232.916 302.938 233 302.918V252Z" fill="#0E2184"/>
<path id="flower" fill-rule="evenodd" clip-rule="evenodd" d="M509.827 262.716C525.448 247.095 550.774 247.095 566.395 262.716C582.016 278.337 582.016 303.663 566.395 319.284L548.624 337.056L566.395 354.827C582.016 370.448 582.016 395.774 566.395 411.395C550.774 427.016 525.448 427.016 509.827 411.395L492.056 393.624L474.284 411.395C458.664 427.016 433.337 427.016 417.716 411.395C402.095 395.774 402.095 370.448 417.716 354.827L435.487 337.056L417.716 319.284C402.095 303.663 402.095 278.337 417.716 262.716C433.337 247.095 458.663 247.095 474.284 262.716L492.056 280.487L509.827 262.716ZM492.432 350.431C499.611 350.431 505.432 344.611 505.432 337.431C505.432 330.252 499.611 324.431 492.432 324.431C485.252 324.431 479.432 330.252 479.432 337.431C479.432 344.611 485.252 350.431 492.432 350.431Z" fill="#CDB9FA"/>
<path id="mountains" fill-rule="evenodd" clip-rule="evenodd" d="M155 555.276V528.282L159.036 523.304C173.444 505.533 200.556 505.533 214.964 523.304L223.395 533.702L252.021 498.346C266.43 480.551 293.571 480.551 307.979 498.346L329 524.309V551.325L294.767 509.044C287.162 499.652 272.838 499.652 265.233 509.044L155 645.19V618.174L212.459 547.208L201.759 534.01C194.155 524.631 179.845 524.631 172.241 534.01L155 555.276ZM197.309 646.806H219.194L265.241 590.01C272.845 580.631 287.155 580.631 294.759 590.01L329 632.244V605.25L307.964 579.304C293.556 561.533 266.444 561.533 252.036 579.304L197.309 646.806Z" fill="#E4684C"/>
<path id="home" fill-rule="evenodd" clip-rule="evenodd" d="M492 480L576.596 557H577V652H407V557H407.404L492 480ZM459 582H440V618H459V582Z" fill="#4DABBB"/>
<g id="trees">
<path id="Union" fill-rule="evenodd" clip-rule="evenodd" d="M685 612.85C667.773 608.597 655 593.04 655 574.5L655 553.5C655 531.685 672.685 514 694.5 514C716.315 514 734 531.685 734 553.5V574.5C734 593.04 721.227 608.597 704 612.85V651H685V612.85Z" fill="#EF9373"/>
<path id="Union_2" fill-rule="evenodd" clip-rule="evenodd" d="M777 612.85C759.773 608.597 747 593.04 747 574.5L747 521.5C747 499.685 764.685 482 786.5 482C808.315 482 826 499.685 826 521.5L826 574.5C826 593.04 813.227 608.597 796 612.85V651H777V612.85Z" fill="#EF9373"/>
</g>
<g id="slide-right">
<g id="ladder">
<path id="Rectangle 17" d="M807 262.5C807 257.253 811.253 253 816.5 253C821.747 253 826 257.253 826 262.5V422H807V262.5Z" fill="#23422A"/>
<path id="Rectangle 18" d="M754 262.5C754 257.253 758.253 253 763.5 253C768.747 253 773 257.253 773 262.5V422H754V262.5Z" fill="#23422A"/>
<rect id="Rectangle 19" x="756" y="335" width="68" height="19" fill="#23422A"/>
<rect id="Rectangle 20" x="756" y="375" width="68" height="19" fill="#23422A"/>
</g>
<path id="slide" d="M755 287H822L723 422H656L755 287Z" fill="#23422A"/>
</g>
<g id="slide-middle">
<g id="ladder_2">
<path id="Rectangle 17_2" d="M1039 262.5C1039 257.253 1043.25 253 1048.5 253V253C1053.75 253 1058 257.253 1058 262.5V422H1039V262.5Z" fill="#23422A"/>
<path id="Rectangle 18_2" d="M986 262.5C986 257.253 990.253 253 995.5 253V253C1000.75 253 1005 257.253 1005 262.5V422H986V262.5Z" fill="#23422A"/>
<rect id="Rectangle 19_2" x="988" y="335" width="68" height="19" fill="#23422A"/>
<rect id="Rectangle 20_2" x="988" y="375" width="68" height="19" fill="#23422A"/>
</g>
<path id="slide_2" d="M987 287H1054V422H987V287Z" fill="#23422A"/>
</g>
<g id="slide-left">
<g id="ladder_3">
<path id="Rectangle 17_3" d="M1271 262.5C1271 257.253 1275.25 253 1280.5 253V253C1285.75 253 1290 257.253 1290 262.5V422H1271V262.5Z" fill="#23422A"/>
<path id="Rectangle 18_3" d="M1218 262.5C1218 257.253 1222.25 253 1227.5 253V253C1232.75 253 1237 257.253 1237 262.5V422H1218V262.5Z" fill="#23422A"/>
<rect id="Rectangle 19_3" x="1220" y="335" width="68" height="19" fill="#23422A"/>
<rect id="Rectangle 20_3" x="1220" y="375" width="68" height="19" fill="#23422A"/>
</g>
<path id="slide_3" d="M1319 422H1386L1287 287H1220L1319 422Z" fill="#23422A"/>
</g>
<path id="apartment" fill-rule="evenodd" clip-rule="evenodd" d="M242 705H328V876H242H156V757L198.5 729L242 757V705ZM273 774H291V792H273V774ZM310 731H292V749H310V731Z" fill="#CAD746"/>
<path id="apartment-dark" fill-rule="evenodd" clip-rule="evenodd" d="M240 989H326V1160H240H154V1041L196.5 1013L240 1041V989ZM271 1058H289V1076H271V1058ZM308 1015H290V1033H308V1015Z" fill="#A2AD35"/>
<g id="heart">
<path id="Union_3" fill-rule="evenodd" clip-rule="evenodd" d="M740.357 745.761L754.983 731.136C771.163 714.955 797.398 714.955 813.578 731.136C829.759 747.316 829.759 773.55 813.578 789.731L798.952 804.357L799.029 804.433L740.433 863.029L682.281 804.876L681.838 804.433L667.136 789.731C650.955 773.55 650.955 747.316 667.136 731.136C683.316 714.955 709.55 714.955 725.731 731.136L740.357 745.761Z" fill="#CDB9FA"/>
</g>
<g id="road">
<rect id="Rectangle 29" x="407" y="725" width="171" height="19" fill="#0F2182"/>
<rect id="Rectangle 30" x="407" y="837" width="171" height="19" fill="#0F2182"/>
<rect id="Rectangle 31" x="407" y="781" width="24" height="19" fill="#0F2182"/>
<rect id="Rectangle 32" x="554" y="781" width="24" height="19" fill="#0F2182"/>
<rect id="Rectangle 33" x="505" y="781" width="24" height="19" fill="#0F2182"/>
<rect id="Rectangle 34" x="456" y="781" width="24" height="19" fill="#0F2182"/>
</g>
<g id="trulia text">
<circle id="Ellipse 3" cx="588.5" cy="1098.5" r="6.5" fill="black"/>
<path id="Exclude" fill-rule="evenodd" clip-rule="evenodd" d="M397.5 1095.5V1112H388V1123.5H397.5V1141C398.833 1147.17 406.2 1159.5 425 1159.5V1148C420 1148 410 1146.6 410 1141V1123.5H425V1112H410V1095.5H397.5ZM437 1112V1123.5H442.5V1158.5H454.5V1132C454.5 1129.17 457.5 1123.5 469.5 1123.5V1112C465 1111.5 455.1 1112.2 451.5 1119L449.5 1112H437ZM492 1112H481V1141C482.5 1147.17 489.2 1159.5 504 1159.5C518.8 1159.5 525.833 1147.17 527.5 1141V1112H516V1141C515.167 1143.33 511.6 1148 504 1148C496.4 1148 492.833 1142 492 1139V1112ZM539 1096V1107.5H547V1146.5H539V1158.5H567.5V1146.5H559V1096H539ZM575 1123.5V1112H594.5V1146.5H603V1158.5H583V1123.5H575ZM646 1116.5V1112H657.5V1158.5H646V1154C645 1155.83 640.7 1159.5 631.5 1159.5C620 1159.5 609.5 1146.5 609.5 1135C609.5 1123.5 618.5 1112 631.5 1112C641.9 1112 645.5 1115 646 1116.5ZM633 1147C639.627 1147 645 1141.63 645 1135C645 1128.37 639.627 1123 633 1123C626.373 1123 621 1128.37 621 1135C621 1141.63 626.373 1147 633 1147Z" fill="black"/>
</g>
</g>
</svg>
